<?xml version="1.0" encoding="utf-8"?>
<!-- Generator: Adobe Illustrator 24.1.2, SVG Export Plug-In . SVG Version: 6.00 Build 0)  -->
<svg version="1.1" id="Layer_1" xmlns="http://www.w3.org/2000/svg" xmlns:xlink="http://www.w3.org/1999/xlink" x="0px" y="0px"
	 viewBox="0 0 300 300" style="enable-background:new 0 0 300 300;" xml:space="preserve">
<style type="text/css">
	.st0{fill:#FFFFFF;}
</style>
<path class="st0" d="M150.32,87.37c-34.29,0-62.19,27.9-62.19,62.19c0,34.29,27.9,62.19,62.19,62.19c34.29,0,62.19-27.9,62.19-62.19
	C212.51,115.27,184.61,87.37,150.32,87.37z M181.14,154.94l-42.92,24.55c-5.17,2.95-9.39,0.5-9.39-5.45v-13.66
	c0-5.95,0-15.69,0-21.64v-13.66c0-5.95,4.23-8.4,9.39-5.45l42.92,24.55C186.3,147.15,186.3,151.98,181.14,154.94z"/>
</svg>
