<?xml version="1.0" encoding="UTF-8" standalone="no"?>
<svg
   xmlns:dc="http://purl.org/dc/elements/1.1/"
   xmlns:cc="http://creativecommons.org/ns#"
   xmlns:rdf="http://www.w3.org/1999/02/22-rdf-syntax-ns#"
   xmlns:svg="http://www.w3.org/2000/svg"
   xmlns="http://www.w3.org/2000/svg"
   xmlns:sodipodi="http://sodipodi.sourceforge.net/DTD/sodipodi-0.dtd"
   xmlns:inkscape="http://www.inkscape.org/namespaces/inkscape"
   inkscape:version="1.0 (4035a4fb49, 2020-05-01)"
   sodipodi:docname="search.svg"
   id="svg3"
   xml:space="preserve"
   enable-background="new 0 0 500 500"
   viewBox="0 0 500 500"
   height="500px"
   width="500px"
   y="0px"
   x="0px"
   version="1.1"><metadata
   id="metadata9"><rdf:RDF><cc:Work
       rdf:about=""><dc:format>image/svg+xml</dc:format><dc:type
         rdf:resource="http://purl.org/dc/dcmitype/StillImage" /></cc:Work></rdf:RDF></metadata><defs
   id="defs7" /><sodipodi:namedview
   inkscape:current-layer="svg3"
   inkscape:window-maximized="1"
   inkscape:window-y="0"
   inkscape:window-x="0"
   inkscape:cy="336.07022"
   inkscape:cx="250"
   inkscape:zoom="1.766"
   showgrid="false"
   id="namedview5"
   inkscape:window-height="1034"
   inkscape:window-width="1920"
   inkscape:pageshadow="2"
   inkscape:pageopacity="0"
   guidetolerance="10"
   gridtolerance="10"
   objecttolerance="10"
   borderopacity="1"
   bordercolor="#666666"
   pagecolor="#ffffff" />
	<path
   d="M 6.5375542,462.2 131.03755,337.7 c 1,-1 2.1,-1.9 3.2,-2.6 -28.6,-35.4 -45.699996,-80.3 -45.699996,-129.2 C 88.437554,92.4 180.83755,0 294.23755,0 c 113.5,0 205.8,92.4 205.8,205.9 0,113.5 -92.3,205.9 -205.8,205.9 -49,0 -94,-17.2 -129.4,-45.9 -0.8,1.1 -1.6,2.2 -2.6,3.2 L 37.737554,493.6 c -8.6,8.6 -22.7,8.6 -31.2999998,0 -8.6,-8.7 -8.6,-22.7 0.1,-31.4 z M 294.23755,367.5 c 89,0 161.5,-72.5 161.5,-161.6 0,-89.1 -72.5,-161.7 -161.5,-161.7 -89.1,0 -161.6,72.5 -161.6,161.7 0,89.1 72.5,161.6 161.6,161.6 z"
   fill="#fefdfd"
   id="search" />
</svg>
