<svg xmlns="http://www.w3.org/2000/svg" viewBox="0 0 595.75 63.45"><defs><style>.a{fill:#2d2d2b;}</style></defs><title>WRlogo</title><path class="a" d="M31.84,1.58a.6.6,0,0,1,.55.29,1.28,1.28,0,0,1,.19.7L26.19,61V61h-.06v.25h-.08v.08H26v.09l-.06.08h-.08v.08h-.07l-.08.09h-.22l-.07.08-.07-.08H25.1v-.09H25v-.08h-.08l-.08-.08v-.09a.07.07,0,0,1-.07-.08l-.08-.08v-.08L16.29,32.6,7.94,61.13v.08H7.87v.08l-.08.08v.09H7.72v.08H7.65v.08H7.5v.09H7.28l-.07.08s-.07,0-.07-.08H6.92s-.08,0-.08-.09H6.77l-.07-.08H6.62v-.08l-.07-.09v-.08H6.47v-.16s-.06,0-.06-.09V61L0,2.57a.84.84,0,0,1,.15-.7.61.61,0,0,1,.51-.29.7.7,0,0,1,.63.12.75.75,0,0,1,.25.62l6,54.49,8-27.37v-.08h.08V29.2h.07v-.09h.08V29h.07v-.09H16v-.08h.6v.08h.06c.05,0,.08,0,.08.09h.07v.08h.08v.09a.07.07,0,0,1,.08.08s0,.08.06.08v.08l8,27.37L31,2.32C31.06,1.71,31.35,1.46,31.84,1.58Z"/><path class="a" d="M47.24,61.79a.73.73,0,0,1-.81-.83V2.32a.81.81,0,1,1,1.62,0V61A.73.73,0,0,1,47.24,61.79Z"/><path class="a" d="M71.36,3.31H60c-.54,0-.8-.3-.8-.91s.26-.82.8-.82H84a.72.72,0,0,1,.81.82c0,.61-.27.91-.81.91H72.89V60.88c0,.61-.26.91-.8.91s-.73-.3-.73-.91Z"/><path class="a" d="M117.7,1.49c.54,0,.8.28.8.83V61c0,.55-.26.83-.8.83S117,61.51,117,61V36.16H96.87V61c0,.55-.24.83-.73.83a.73.73,0,0,1-.81-.83V2.32a.73.73,0,0,1,.81-.83c.49,0,.73.28.73.83v32.1H117V2.32C117,1.77,117.2,1.49,117.7,1.49Z"/><path class="a" d="M159,61.71v.08a1.39,1.39,0,0,1-.51.41c0,.06,0,.08-.07.08l-.07.09h-.08l-.07.08h-.08c-.14.06-.31.14-.51.25h-1a.29.29,0,0,1-.22-.08h-.15a1.52,1.52,0,0,1-.58-.34l-.15-.12a.53.53,0,0,1-.15-.12l-.15-.17h-.06l-.08-.08v-.08c-.05,0-.07,0-.07,0s0-.05-.08-.05v-.08s0-.08,0-.08,0,0,0-.09h-.07c0-.11,0-.16-.08-.16v-.08l-.07-.17a.17.17,0,0,0,0-.12.18.18,0,0,1,0-.13L148.34,39.4l-6.23,21.31A.37.37,0,0,0,142,61H142c0,.11,0,.17-.07.17v.08l-.07.16a.29.29,0,0,0-.08.17.07.07,0,0,0-.07.08l-.07.09-.07.08-.08.08-.14.17h-.08a1,1,0,0,1-.29.24,1.1,1.1,0,0,1-.52.34h-.22a.19.19,0,0,1-.14.08h-1a3.88,3.88,0,0,1-.51-.25h-.14v-.08h-.08l-.07-.09c-.05,0-.08,0-.08-.08h-.07a1.27,1.27,0,0,1-.36-.33v-.08h-.08s0-.08-.08-.08,0-.09-.07-.09v-.08l-.07-.08-.07-.09-.22-.49v-.17c-.06,0-.07,0-.07-.08v-.25a.37.37,0,0,1-.08-.25L131,4.31a3,3,0,0,1,.52-2.11,2.52,2.52,0,0,1,1.76-1.12,2.21,2.21,0,0,1,1.87.57,3.07,3.07,0,0,1,1,1.91l4.69,43,5.06-17.42.07-.08v-.09a.07.07,0,0,1,.08-.08V28.7l.14-.17v-.08l.08-.08.07-.09a.07.07,0,0,1,.07-.08v-.09h.08V28l.07-.08c.05,0,.07,0,.07-.08h.08v-.09l.07-.08a.67.67,0,0,1,.33-.21.51.51,0,0,0,.32-.21h.16l.07-.08h.29v-.08h.81l.07.08H149c.05,0,.08,0,.08,0s0,0,.06,0h.15a.55.55,0,0,0,.3.21.67.67,0,0,1,.29.21l.08.08s.07,0,.07.09h.07V28h.08V28s.07,0,.07.08h.07v.09l.08.08.07.09c0,.05,0,.08.08.08v.16h.06v.17a.07.07,0,0,1,.08.08l.08.08v.17l5.12,17.42,4.7-43a3,3,0,0,1,1-1.91,2.19,2.19,0,0,1,1.86-.57,2.61,2.61,0,0,1,1.73,1.12,2.85,2.85,0,0,1,.55,2.11l-6.08,55.82a.33.33,0,0,0-.08.25v.17l-.07.08v.08a.31.31,0,0,1-.07.17.55.55,0,0,1-.15.33.23.23,0,0,1-.07.16v.09h-.08v.08l-.07.08v.09Z"/><path class="a" d="M179.58,62.7a2.31,2.31,0,0,1-1.84-.87,3.1,3.1,0,0,1-.73-2V3.9a3.07,3.07,0,0,1,.73-2,2.31,2.31,0,0,1,3.63,0,2.91,2.91,0,0,1,.77,2V59.8a2.94,2.94,0,0,1-.77,2A2.32,2.32,0,0,1,179.58,62.7Z"/><path class="a" d="M219.9,61.54l-.08.08s-.07,0-.07.09h-.07l-.07.08c0,.06,0,.08-.07.08l-.08.09h-.07a.07.07,0,0,1-.08.08h-.07v.08h-.07l-.08.08a1.2,1.2,0,0,1-.58.17,1.1,1.1,0,0,1-.51.08h-.37a.26.26,0,0,1-.22-.08h-.15a.54.54,0,0,0-.18-.09.46.46,0,0,1-.19-.08.21.21,0,0,0-.15-.08.23.23,0,0,1-.14-.08l-.07-.08-.08-.09h-.07s0-.08-.07-.08l-.08-.08-.07-.09-.07-.08-.07-.08a.27.27,0,0,1-.08-.17c-.05,0-.07,0-.07-.08l-.08-.08a.37.37,0,0,1-.07-.25.23.23,0,0,1-.07-.13.26.26,0,0,0-.08-.12l-16.42-42.8V59.55a3.1,3.1,0,0,1-.73,2,2.3,2.3,0,0,1-1.83.87,2.33,2.33,0,0,1-1.8-.87,2.94,2.94,0,0,1-.77-2V3.15h.08V2.82l.06-.09V2.57c.06,0,.08,0,.08-.08s0-.09,0-.09,0,0,0-.08V2.24h.08V2.16c0-.06,0-.09.07-.09V2l.07-.08.07-.09a.08.08,0,0,1,.08-.08q0-.09,0-.09s0,0,0-.07.07,0,.07-.09h.08l.07-.08.08-.08s.07,0,.07-.09h.07l.08-.08h.07l.08-.08h.07a.41.41,0,0,1,.29-.17.63.63,0,0,0,.29-.08h.07a1.27,1.27,0,0,1,.59-.09H197c.05,0,.07,0,.07.09h.3a.21.21,0,0,0,.15.08l.07.08h.15l.07.09c.05,0,.09,0,.15.08H198c0,.05,0,.08.07.08l.08.09h.07v.08h.07c0,.05,0,.08.07.08s0,.09.08.09a.27.27,0,0,1,.08.16s.06,0,.06.08h.08v.09h.07V2c0,.05,0,.08.07.08v.09l.08.08s0,.08,0,.08,0,0,0,.08l.08.17,16.42,42.88V3.65a3.08,3.08,0,0,1,.73-2,2.33,2.33,0,0,1,3.63,0,3,3,0,0,1,.77,2v56.4l-.08.08v.25l-.06.08v.17c-.06,0-.08,0-.08.08v.08l-.07.09V61a.07.07,0,0,0-.08.08v.09h-.07v.08l-.07.08a.07.07,0,0,1-.08.08c0,.06,0,.09,0,.09S219.9,61.49,219.9,61.54Z"/><path class="a" d="M242.19,63.45a10.32,10.32,0,0,1-8.65-4,14.79,14.79,0,0,1-3.16-7.88q-.13-1.41-.18-2.49a8.58,8.58,0,0,1,0-1.49V15.09a18.74,18.74,0,0,1,1.06-6.63,14.22,14.22,0,0,1,2.75-4.65,10.85,10.85,0,0,1,3.81-2.69,11.31,11.31,0,0,1,4.33-.87,10.86,10.86,0,0,1,8,3.31,15.32,15.32,0,0,1,2.68,4.19,18.05,18.05,0,0,1,1.28,7.42,3,3,0,0,1-.77,2,2.34,2.34,0,0,1-1.8.87,2.42,2.42,0,0,1-1.87-.87,3,3,0,0,1-.77-2,12.12,12.12,0,0,0-.84-5,7.81,7.81,0,0,0-1.94-2.74,5.31,5.31,0,0,0-2.24-1.16,9.33,9.33,0,0,0-1.72-.25A6.22,6.22,0,0,0,237.64,8c-1.52,1.6-2.27,4-2.27,7.13V48.81a14,14,0,0,0,.15,1.95,15,15,0,0,0,.54,2.48,6.19,6.19,0,0,0,1.29,2.33,5.85,5.85,0,0,0,4.84,2,6,6,0,0,0,5.06-2.07,7.84,7.84,0,0,0,1.25-2.25,13.89,13.89,0,0,0,.62-2.32,17.06,17.06,0,0,0,.17-2.57V37.74h-5.12a2.48,2.48,0,0,1-1.88-.87,3.12,3.12,0,0,1-.76-2.12,3,3,0,0,1,.76-2,2.44,2.44,0,0,1,1.88-.87h10.26V48.11a7.23,7.23,0,0,1,0,1.4,21.56,21.56,0,0,1-.26,2.49,16.23,16.23,0,0,1-3.15,7.47A10.93,10.93,0,0,1,242.19,63.45Z"/><path class="a" d="M276.93,63a12.12,12.12,0,0,1-8.64-3.31,14.82,14.82,0,0,1-2.76-4,16.77,16.77,0,0,1-1.35-7.35,2.93,2.93,0,0,1,.77-2.07,2.49,2.49,0,0,1,1.88-.83,2.28,2.28,0,0,1,1.75.83,3,3,0,0,1,.74,2.07,12.29,12.29,0,0,0,.69,4.48,7,7,0,0,0,1.79,2.7,6.43,6.43,0,0,0,2.46,1.33,10.47,10.47,0,0,0,2.67.37A15,15,0,0,0,279,57a6.37,6.37,0,0,0,2.66-1.12A7.75,7.75,0,0,0,284,53.24a10,10,0,0,0,1-4.89,17,17,0,0,0-.77-5.39,14.45,14.45,0,0,0-2.12-4.14A21.52,21.52,0,0,0,279,35.46c-1.17-1-2.42-2.06-3.74-3.11s-2.36-1.94-3.56-3a25.63,25.63,0,0,1-3.26-3.48,17.37,17.37,0,0,1-3.51-10.54c0-.22,0-.66,0-1.33a18.94,18.94,0,0,1,.26-2.31,14.55,14.55,0,0,1,2.93-7A11,11,0,0,1,277,.74a10.46,10.46,0,0,1,8.73,3.91,11.53,11.53,0,0,1,1.76,3.23,14.57,14.57,0,0,1,.8,4,18.17,18.17,0,0,1,.11,2.53,5.12,5.12,0,0,1-.11,1.2,12.77,12.77,0,0,1-.51,1.91,4.92,4.92,0,0,1-.88,1.16,1.72,1.72,0,0,1-1.54.33,2,2,0,0,1-1.46-.87,4.19,4.19,0,0,1-.59-1.45,4.88,4.88,0,0,1-.07-1.91,8.4,8.4,0,0,0,0-2.24c-.1-.61-.25-1.29-.44-2a6.12,6.12,0,0,0-1-2c-1-1.33-2.6-2-4.84-2A6,6,0,0,0,272,8.62a5.93,5.93,0,0,0-1.2,2.08,10.89,10.89,0,0,0-.55,2.07A8.64,8.64,0,0,0,270,15v.25a11.14,11.14,0,0,0,.59,3.73,11.52,11.52,0,0,0,1.65,3.07,20.5,20.5,0,0,0,2.57,2.78c1,.92,2.14,1.89,3.41,2.94,1.42,1,2.79,2.17,4.14,3.36a27,27,0,0,1,3.78,4.19,21.68,21.68,0,0,1,3.95,13A17.36,17.36,0,0,1,289,55a13.13,13.13,0,0,1-3,4.56,12.16,12.16,0,0,1-4.26,2.65A13.93,13.93,0,0,1,276.93,63Z"/><path class="a" d="M325.8,60.38a.68.68,0,0,1,0,.62.87.87,0,0,1-.55.38h-.15a.77.77,0,0,1-.81-.67l-2.2-12.52H307.25L305,60.71c-.1.44-.34.67-.73.67h-.15a.77.77,0,0,1-.67-1L313.85,1.75s.08,0,.08-.09V1.58L314,1.5V1.41h.08V1.33h.08V1.25h.07c0-.06,0-.08.07-.08h.07V1.08h.51l.08.09h.15v.08h.07v.08h.07v.08l.07.09v.08h.08v.17Zm-4-14-7.11-39.9-7.12,39.9Z"/><path class="a" d="M341,1.82l.07-.07V1.58l.07-.08V1.41h.07V1.33h.08V1.25h.07c0-.06,0-.08.08-.08h.07c0-.06,0-.09.08-.09h.51c0,.06,0,.09.07.09h.07v.08h.08l.07.08v.08h.07V1.5l.08.08,20.89,54.66V1.91a.72.72,0,0,1,.81-.83c.54,0,.8.27.8.83V60.55H365v.33h-.07v.17h-.07v.08h-.08v.08h-.08v.08h-.06l-.08.09H364a.2.2,0,0,1-.15-.09h-.07s0-.08-.07-.08l-.08-.08-.07-.08V61a.08.08,0,0,1-.08-.09L342.59,6.22V60.55c0,.56-.27.83-.8.83a.72.72,0,0,1-.81-.83V1.82Z"/><path class="a" d="M400.22,4.15q3.52,3.73,3.52,10.37V48q0,6.79-3.52,10.36A9.56,9.56,0,0,1,397,60.59a9.46,9.46,0,0,1-3.81.79H383c-.54,0-.8-.27-.8-.83V1.91c0-.56.26-.83.8-.83h10.19a9.63,9.63,0,0,1,7,3.07Zm2,10.37a16.14,16.14,0,0,0-.77-5.23,10.26,10.26,0,0,0-2.06-3.65,8.47,8.47,0,0,0-2.89-2.11,8.17,8.17,0,0,0-3.3-.71h-9.46V59.64h9.46a8.47,8.47,0,0,0,3.3-.67,7.86,7.86,0,0,0,2.89-2.11,10.81,10.81,0,0,0,2.06-3.65A16.08,16.08,0,0,0,402.2,48Z"/><path class="a" d="M451,58.23a3.32,3.32,0,0,1,.08,2.28A2.36,2.36,0,0,1,449.64,62a1.81,1.81,0,0,1-.55.21,2.9,2.9,0,0,1-.48,0,2.55,2.55,0,0,1-1.43-.41,2.78,2.78,0,0,1-1-1.33l-8.8-22.81h-7.62V59.39a3,3,0,0,1-.77,2.07,2.45,2.45,0,0,1-1.87.83,2.35,2.35,0,0,1-1.8-.83,2.93,2.93,0,0,1-.77-2.07V3.57a3.11,3.11,0,0,1,.77-2.12,2.33,2.33,0,0,1,1.8-.87h10.92a7.43,7.43,0,0,1,4.51,1.62,14.91,14.91,0,0,1,3.85,4.52,24.61,24.61,0,0,1,2.27,5.89,27.21,27.21,0,0,1,0,13.18,24.61,24.61,0,0,1-2.27,5.89,13.35,13.35,0,0,1-4,4.57ZM429.77,31.94h8.28a3.16,3.16,0,0,0,2-.92A9,9,0,0,0,442,28.53a17,17,0,0,0,1.72-4.35,20.48,20.48,0,0,0,.62-5,20.26,20.26,0,0,0-.62-4.94A17.17,17.17,0,0,0,442,9.87a8.4,8.4,0,0,0-1.95-2.53,3.23,3.23,0,0,0-2-.87h-8.28Z"/><path class="a" d="M475.37,63.28a10.5,10.5,0,0,1-8.72-4,15.55,15.55,0,0,1-3.09-7.89,18.94,18.94,0,0,1-.22-2.56,9.78,9.78,0,0,1,.08-1.5V14.93a18.74,18.74,0,0,1,1.06-6.63,14.64,14.64,0,0,1,2.75-4.69A10.45,10.45,0,0,1,471,.87,11.35,11.35,0,0,1,475.37,0,15.32,15.32,0,0,1,479,.58a10.12,10.12,0,0,1,4.47,2.74,16.74,16.74,0,0,1,1.47,1.74,11,11,0,0,1,1.32,2.45,21.1,21.1,0,0,1,1,3.27,19.35,19.35,0,0,1,.4,4.15V49.31a17,17,0,0,1-.21,2.45,15.9,15.9,0,0,1-3.16,7.55A10.92,10.92,0,0,1,475.37,63.28Zm-6.82-15.59v.92a16,16,0,0,0,.15,2,15.46,15.46,0,0,0,.55,2.49,6.09,6.09,0,0,0,1.28,2.31,5.82,5.82,0,0,0,4.84,2,6.26,6.26,0,0,0,5.06-2.06,8.13,8.13,0,0,0,1.25-2.2,12.94,12.94,0,0,0,.61-2.28,11.88,11.88,0,0,0,.2-1.83V14.93A11.45,11.45,0,0,0,481.6,10a7.73,7.73,0,0,0-2.05-2.69,5.9,5.9,0,0,0-2.38-1.16,9.65,9.65,0,0,0-1.8-.25,6.08,6.08,0,0,0-4.55,1.91q-2.26,2.4-2.27,7.13V47.69Z"/><path class="a" d="M512.54,63.28a10.53,10.53,0,0,1-8.73-4,15.63,15.63,0,0,1-3.08-7.89,18.74,18.74,0,0,1-.21-2.56,10.17,10.17,0,0,1,.07-1.5V14.93a18.74,18.74,0,0,1,1.06-6.63,14.46,14.46,0,0,1,2.75-4.69A10.54,10.54,0,0,1,508.21.87,11.35,11.35,0,0,1,512.54,0a15.32,15.32,0,0,1,3.59.58,10.09,10.09,0,0,1,4.48,2.74,18.05,18.05,0,0,1,1.46,1.74,11,11,0,0,1,1.32,2.45,20.06,20.06,0,0,1,1,3.27,19.35,19.35,0,0,1,.4,4.15V49.31a15.8,15.8,0,0,1-.22,2.45,15.69,15.69,0,0,1-3.15,7.55A10.93,10.93,0,0,1,512.54,63.28Zm-6.81-15.59v.92a15.76,15.76,0,0,0,.14,2,16.52,16.52,0,0,0,.54,2.49,6.39,6.39,0,0,0,1.29,2.31,5.83,5.83,0,0,0,4.84,2,6.26,6.26,0,0,0,5.06-2.06,7.6,7.6,0,0,0,1.24-2.2,13.09,13.09,0,0,0,.63-2.28,11.54,11.54,0,0,0,.18-1.83V14.93a11.48,11.48,0,0,0-.87-4.94,7.74,7.74,0,0,0-2.06-2.69,5.82,5.82,0,0,0-2.39-1.16,9.46,9.46,0,0,0-1.79-.25A6,6,0,0,0,508,7.8c-1.52,1.6-2.27,4-2.27,7.13V47.69Z"/><path class="a" d="M563.46,1.45a3.11,3.11,0,0,1,.77,2.12,3,3,0,0,1-.77,2,2.34,2.34,0,0,1-1.8.87h-8.87V59.39a3,3,0,0,1-.73,2.07,2.4,2.4,0,0,1-3.63,0,2.89,2.89,0,0,1-.77-2.07V6.47h-9a2.42,2.42,0,0,1-1.87-.87,3,3,0,0,1-.77-2,3.11,3.11,0,0,1,.77-2.12,2.42,2.42,0,0,1,1.87-.87h23A2.34,2.34,0,0,1,563.46,1.45Z"/><path class="a" d="M582.56,62.62a12.17,12.17,0,0,1-8.65-3.31,14.67,14.67,0,0,1-2.76-4A16.53,16.53,0,0,1,569.8,48a3,3,0,0,1,.77-2.08,2.48,2.48,0,0,1,1.87-.83,2.29,2.29,0,0,1,1.76.83,3,3,0,0,1,.74,2.08,12.27,12.27,0,0,0,.69,4.47,6.78,6.78,0,0,0,1.79,2.69,6.3,6.3,0,0,0,2.46,1.33,10.08,10.08,0,0,0,2.68.38,14.64,14.64,0,0,0,2.09-.21,6.5,6.5,0,0,0,2.68-1.12,7.81,7.81,0,0,0,2.3-2.66,9.82,9.82,0,0,0,1-4.88,17.06,17.06,0,0,0-.77-5.41,14.46,14.46,0,0,0-2.12-4.14A22.45,22.45,0,0,0,584.61,35c-1.18-1-2.42-2.06-3.73-3.1s-2.37-1.94-3.57-3a23.34,23.34,0,0,1-3.25-3.48,17.22,17.22,0,0,1-3.52-10.53q0-.33,0-1.32a19.23,19.23,0,0,1,.26-2.33,14.44,14.44,0,0,1,2.93-7A11,11,0,0,1,582.63.34a10.49,10.49,0,0,1,8.73,3.89,11.73,11.73,0,0,1,1.76,3.24,15,15,0,0,1,.8,4A18.09,18.09,0,0,1,594,14a5.16,5.16,0,0,1-.11,1.21,14.11,14.11,0,0,1-.51,1.91,5.07,5.07,0,0,1-.88,1.16,1.73,1.73,0,0,1-1.54.33,2,2,0,0,1-1.47-.87,4.48,4.48,0,0,1-.59-1.45,5.08,5.08,0,0,1-.07-1.91,8.4,8.4,0,0,0,0-2.24c-.1-.61-.24-1.28-.44-2a6,6,0,0,0-.95-2q-1.47-2-4.84-2a6,6,0,0,0-5,2.16,5.94,5.94,0,0,0-1.22,2.07,12.37,12.37,0,0,0-.55,2.07,8.6,8.6,0,0,0-.15,2.24v.25a11.14,11.14,0,0,0,.59,3.73,11.81,11.81,0,0,0,1.65,3.07,20.5,20.5,0,0,0,2.57,2.78q1.49,1.37,3.41,2.94Q586,29,588,30.73a26.54,26.54,0,0,1,3.78,4.19,21.62,21.62,0,0,1,4,13,17.38,17.38,0,0,1-1.13,6.59,13,13,0,0,1-3,4.56,12.08,12.08,0,0,1-4.24,2.65A14,14,0,0,1,582.56,62.62Z"/></svg>