<?xml version="1.0" encoding="utf-8"?>
<!-- Generator: Adobe Illustrator 23.1.1, SVG Export Plug-In . SVG Version: 6.00 Build 0)  -->
<svg version="1.1" id="Layer_1" xmlns="http://www.w3.org/2000/svg" xmlns:xlink="http://www.w3.org/1999/xlink" x="0px" y="0px"
	 viewBox="0 0 500 500" style="enable-background:new 0 0 500 500;" xml:space="preserve">
<path id="twitter--circle" fill="#fcba3a" d="M-0.5,250.5c0-137.9,112.2-250,250-250c137.9,0,250,112.1,250,250c0,137.8-112.1,250-250,250
	C111.7,500.5-0.5,388.3-0.5,250.5z M482.5,250.5c0-128.5-104.5-233-233-233s-233,104.6-233,233c0,128.5,104.6,233,233,233
	C378,483.5,482.5,379,482.5,250.5z M219.3,312.2l-11.8,11.6c-10.2,10-26.8,10-37,0c-4.9-4.8-7.6-11.2-7.6-18c0-6.8,2.7-13.2,7.6-18
	l43.3-42.6c9-8.8,25.9-21.8,38.2-9.7c5.6,5.6,14.8,5.5,20.4-0.1c5.6-5.6,5.6-14.6-0.1-20.2c-20.9-20.6-51.9-16.8-78.8,9.7
	l-43.3,42.6c-10.4,10.2-16.1,23.8-16.1,38.3c0,14.5,5.7,28.1,16.1,38.3c10.7,10.5,24.7,15.8,38.8,15.8c14.1,0,28.1-5.3,38.8-15.8
	l11.8-11.6c5.6-5.6,5.7-14.6,0.1-20.2C234,306.6,224.9,306.6,219.3,312.2z M350.5,146.6c-22.5-22.1-53.9-23.3-74.7-2.8l-14.7,14.4
	c-5.6,5.6-5.7,14.6-0.1,20.2c5.6,5.6,14.7,5.6,20.4,0.1l14.7-14.4c10.8-10.6,24.9-6.2,34.1,2.8c4.9,4.8,7.6,11.2,7.6,18
	c0,6.8-2.7,13.2-7.6,18L284,248.4c-21.1,20.8-31.1,11-35.3,6.9c-5.6-5.6-14.8-5.5-20.4,0.1c-5.6,5.6-5.6,14.6,0.1,20.2
	c9.7,9.5,20.8,14.3,32.4,14.3c14.2,0,29.2-7.1,43.5-21.2l46.2-45.5c10.4-10.2,16.1-23.8,16.1-38.3
	C366.7,170.4,360.9,156.8,350.5,146.6z"/>
</svg>
