<svg xmlns="http://www.w3.org/2000/svg" xmlns:xlink="http://www.w3.org/1999/xlink" width="30.615" height="23.549" viewBox="0 0 30.615 23.549">
  <defs>
    <clipPath id="clip-path">
      <rect id="Rechteck_1" data-name="Rechteck 1" width="30.615" height="23.549" transform="translate(0 0)" fill="none"/>
    </clipPath>
  </defs>
  <g id="Twitter" transform="translate(0 0)">
    <g id="Gruppe_2" data-name="Gruppe 2">
      <g id="Gruppe_1" data-name="Gruppe 1" clip-path="url(#clip-path)">
        <path id="Pfad_1" data-name="Pfad 1" d="M30.531,3.11a14.806,14.806,0,0,1-2.15,2.328c-.871.758-.716,1.272-.8,2.308a17.474,17.474,0,0,1-.993,4.534,17.274,17.274,0,0,1-5.364,7.459C15.39,24.5,6.4,24.7,0,20.907c4.709.193,6.823-.734,9.275-2.469C6.81,18.1,4.6,17.465,3.39,14.231A4.977,4.977,0,0,0,6.143,14.2C3.871,13.507,1.2,12.451,1.2,8.268a5.553,5.553,0,0,0,2.832.717,5.869,5.869,0,0,1-1.92-7.978c1.971,2.811,9.247,6.757,12.561,6.062A6.154,6.154,0,0,1,18.852.38,7.3,7.3,0,0,1,23.8.49a5.532,5.532,0,0,1,1.77,1.1.43.43,0,0,0,.469.151A23.012,23.012,0,0,0,29.479.407a5.92,5.92,0,0,1-2.669,3.32,28.641,28.641,0,0,0,3.214-.96.654.654,0,0,1,.42-.051c.166.049.237.2.087.395" fill="#fff"/>
      </g>
    </g>
  </g>
</svg>
